# xmcd
#
# Track frame offsets:
#   150
#   12542
#   25115
#   40498
#   59625
#   72609
#   85932
#   104857
#   115070
#   124719
#
# Disc length: 1884 seconds
#
# Revision: 0
# Processed by: cddbd v1.5.1PL0 Copyright (c) Steve Scherf et al.
# Submitted via: Media_Universe 3.0
#
DISCID=93075a0a
DTITLE=Clint Black - One Emotion
DYEAR=1900
DGENRE=Country
TTITLE0=One Emotion
TTITLE1=Summers Coming
TTITLE2=Untanglin My Mind
TTITLE3=Wherever You Go
TTITLE4=A Change In The Air
TTITLE5=Life Gets Away
TTITLE6=I Can Get By
TTITLE7=Hey Hot Rod
TTITLE8=You Walked By
TTITLE9=You Made Me Feel
EXTD=
EXTT0=
EXTT1=
EXTT2=
EXTT3=
EXTT4=
EXTT5=
EXTT6=
EXTT7=
EXTT8=
EXTT9=
PLAYORDER=
